<?xml version="1.0" standalone="no"?><!DOCTYPE svg PUBLIC "-//W3C//DTD SVG 1.1//EN" "http://www.w3.org/Graphics/SVG/1.1/DTD/svg11.dtd"><svg t="1497575099532" class="icon" style="" viewBox="0 0 1024 1024" version="1.1" xmlns="http://www.w3.org/2000/svg" p-id="995" xmlns:xlink="http://www.w3.org/1999/xlink" width="200" height="200"><defs><style type="text/css"></style></defs><path d="M803.872932 1023.126097 684.835815 1023.126097c-50.012044 0-95.569636-46.075385-95.569636-96.677876L589.266179 719.061916l-4.638647-4.708232L440.415036 714.353684l-4.627391 4.708232 0 207.387327c0 48.79124-47.343261 96.677876-95.569636 96.677876L221.192149 1023.12712c-50.025347 0-95.579869-46.075385-95.579869-96.677876L125.61228 562.604538l-4.628414-4.707209L76.377949 557.89733c-34.602076 0-61.397349-14.642488-71.693856-39.129182-8.520047-20.299325-3.246951-43.699268 13.770632-61.068867 31.388894-31.999808 88.508823-91.676979 152.213727-158.232814 79.93147-83.506902 170.521698-178.148399 233.525638-242.441705 69.362764-70.78823 150.040225-70.821999 219.402989 0.011256 63.954591 65.243957 154.409742 160.892387 234.227626 245.282403 63.185065 66.816778 117.770264 124.513852 148.45717 155.856697 16.996093 17.312294 22.223141 40.758286 13.646811 61.182454-10.115382 24.124444-36.775578 38.540781-71.264067 38.540781l-44.581358 0-4.640694 4.707209 0 363.844705C899.442567 975.240483 852.10033 1023.126097 803.872932 1023.126097zM420.997801 667.994843l183.046966 0 31.571043 32.05609 0 226.397287c0 25.391297 24.373107 50.330292 49.221028 50.330292L803.872932 976.778512c20.594037 0 49.223075-25.346271 49.223075-50.330292L853.096006 543.594579l31.568996-32.044834 64.00064 0c16.768919 0 26.41051-5.091972 28.53694-10.138918 1.832741-4.356214-2.602268-9.358135-4.00522-10.794857-31.005155-31.637558-85.701894-89.480964-149.044548-156.445098-79.68383-84.253916-169.978323-179.743734-233.639225-244.694001-51.324946-52.367695-101.916181-52.333926-153.208381-0.011256-62.822814 64.101947-153.311735 158.641113-233.152131 242.045685-63.874773 66.726727-121.130801 126.550231-152.59849 158.641113-2.252297 2.297322-5.78168 6.743588-4.14132 10.658757 2.172479 5.170766 12.164041 10.738575 28.967752 10.738575l63.999616 0 31.581276 32.044834 0 382.854665c0 24.440645 25.312502 50.330292 49.232285 50.330292l119.02586 0c22.540366 0 49.222051-27.2926 49.222051-50.330292L389.442108 700.051957 420.997801 667.994843z" p-id="996" fill="#8a8a8a"></path></svg>